<?xml version="1.0" encoding="UTF-8" standalone="no"?>
<!-- Created with Inkscape (http://www.inkscape.org/) -->

<svg
   width="204.41418mm"
   height="27.022976mm"
   viewBox="0 0 204.41418 27.022976"
   version="1.1"
   id="svg1"
   xml:space="preserve"
   sodipodi:docname="logo.svg"
   inkscape:export-filename="logo.svg"
   inkscape:export-xdpi="100"
   inkscape:export-ydpi="100"
   inkscape:version="1.4.3 (0d15f75, 2025-12-25)"
   xmlns:inkscape="http://www.inkscape.org/namespaces/inkscape"
   xmlns:sodipodi="http://sodipodi.sourceforge.net/DTD/sodipodi-0.dtd"
   xmlns="http://www.w3.org/2000/svg"
   xmlns:svg="http://www.w3.org/2000/svg"><sodipodi:namedview
     id="namedview1"
     pagecolor="#ffffff"
     bordercolor="#000000"
     borderopacity="0.25"
     inkscape:showpageshadow="2"
     inkscape:pageopacity="0.0"
     inkscape:pagecheckerboard="0"
     inkscape:deskcolor="#d1d1d1"
     inkscape:document-units="mm"
     inkscape:zoom="0.82280352"
     inkscape:cx="466.69708"
     inkscape:cy="221.80265"
     inkscape:window-width="1920"
     inkscape:window-height="974"
     inkscape:window-x="-11"
     inkscape:window-y="-11"
     inkscape:window-maximized="1"
     inkscape:current-layer="svg1"
     inkscape:export-bgcolor="#ffffff00" /><defs
     id="defs1" /><g
     id="layer1"
     transform="translate(-1.613406,-83.773363)"
     style="fill:#ffffff;stroke:#570abb;stroke-opacity:1;stroke-width:1.2;stroke-dasharray:none;fill-opacity:1"><path
       style="opacity:0.86;fill:#ffffff;fill-opacity:1;stroke:#570abb;stroke-width:1.2;stroke-linecap:round;stroke-linejoin:round;stroke-dasharray:none;stroke-opacity:1"
       d="M 113.64581,100.3176 V 89.988923 l 2.43595,0.0761 2.43595,0.0761 0.3707,1.52136 c 0.20388,0.83674 0.47692,1.52135 0.60676,1.52135 0.12983,0 0.23606,-0.10993 0.23606,-0.24428 0,-0.13436 0.31263,-0.61583 0.69474,-1.06994 2.32526,-2.7634 6.99104,-2.60634 9.101,0.30637 3.3028,4.55939 1.03616,12.034227 -3.81503,12.581027 -2.10734,0.23753 -3.80968,-0.36959 -5.28587,-1.88514 l -1.30991,-1.34483 0.1851,4.55965 0.18509,4.55965 h -2.92027 -2.92027 z m 10.48656,-0.699127 c 1.42982,-0.93685 1.48382,-3.40287 0.10179,-4.64875 -1.51082,-1.36199 -4.17577,-0.8008 -4.77168,1.00483 -0.98219,2.97604 2.06287,5.352097 4.66989,3.64392 z M 7.2312469,108.16767 c -2.4563584,-0.67771 -4.4343148,-2.57996 -5.2345035,-5.03415 -0.446812,-1.37038 -0.2170807,-3.999047 0.4666175,-5.339207 0.786211,-1.5411 2.6423929,-3.13698 4.2821018,-3.6816 1.4626462,-0.48582 4.3031603,-0.44445 4.8177643,0.0701 0.156891,0.15689 -0.04811,0.69161 -0.550582,1.43613 -0.980585,1.45296 -1.3298701,2.33195 -1.6081721,4.04708 -0.382913,2.359807 0.390113,5.332817 1.8839581,7.245567 0.658814,0.84357 0.62388,1.02077 -0.234804,1.19102 -1.8624461,0.36928 -2.6697951,0.38301 -3.8223801,0.065 z m 9.7895841,-4.5e-4 c -2.398279,-0.66081 -4.393206,-2.54251 -5.197635,-4.90261 -0.392797,-1.15243 -0.374221,-3.385327 0.03612,-4.341057 l 0.318795,-0.74252 1.058333,0.80109 c 1.62939,1.233327 4.059676,1.952607 6.172848,1.826927 1.882958,-0.11199 4.428417,-1.091617 5.533143,-2.129447 0.327276,-0.30746 0.654208,-0.49986 0.726515,-0.42755 0.324747,0.32475 0.594875,2.848877 0.420318,3.927557 -0.699385,4.32188 -4.943539,7.12416 -9.068432,5.98761 z m 25.871366,-3.63457 c -2.472986,-0.36069 -7.298465,-1.8082 -7.298465,-2.18935 0,-0.13537 2.347154,-4.715697 2.489434,-4.857977 0.06564,-0.0656 0.914658,0.19883 1.886709,0.58771 0.972051,0.38888 2.73656,0.89013 3.921132,1.11388 4.978287,0.940317 9.177178,-0.44193 6.352957,-2.09136 -0.647694,-0.37827 -1.762049,-0.53507 -5.158511,-0.72583 -5.917351,-0.33233 -7.824381,-0.9762 -8.867828,-2.994 -0.306841,-0.59336 -0.385525,-1.24252 -0.284991,-2.35123 0.251265,-2.77099 1.914561,-4.51295 5.333751,-5.58598 2.816867,-0.88401 7.789208,-0.81942 11.323141,0.14708 2.63499,0.72064 4.800362,1.65217 4.651206,2.00091 -0.0459,0.10732 -0.43926,1.17434 -0.874128,2.37115 -0.434869,1.1968 -0.911119,2.12136 -1.058334,2.05457 -1.977123,-0.89707 -3.841847,-1.51677 -5.676603,-1.8865 -3.749679,-0.75561 -7.621217,-0.14915 -7.370154,1.15452 0.161739,0.83984 1.548767,1.20785 5.31118,1.40916 5.650147,0.30231 7.853815,0.91684 9.253722,2.58053 0.858252,1.01998 1.094791,2.36345 0.727566,4.13236 -0.400465,1.929027 -1.205325,3.031637 -2.866108,3.926377 -2.425959,1.30698 -7.522644,1.8272 -11.795676,1.20398 z m 39.449126,-0.0905 c -2.30835,-0.82326 -2.872484,-2.01516 -3.074511,-6.495827 l -0.149121,-3.30729 -1.256771,0.088 -1.256771,0.088 v -2.26575 c 0,-2.25269 0.0042,-2.26676 0.727605,-2.44166 1.110954,-0.26861 2.070612,-1.0477 2.559481,-2.07792 l 0.441908,-0.93125 h 3.294878 c 1.831918,0 3.294879,0.1082 3.294879,0.24369 0,0.13404 -0.53056,0.77426 -1.179021,1.42272 -0.648461,0.64846 -1.104867,1.25317 -1.014236,1.34381 0.09063,0.0906 1.156972,0.16478 2.369645,0.16478 h 2.204862 v 2.24129 2.24128 l -2.182813,-0.0585 -2.182812,-0.0585 -0.07825,1.78659 c -0.126571,2.88987 0.793004,4.166537 3.001116,4.166537 h 0.913592 v 1.9513 1.9513 l -0.826823,0.16537 c -1.409429,0.28188 -4.547335,0.1599 -5.606837,-0.21797 z m 11.09147,0.10858 c -0.911461,-0.27275 -2.154676,-1.40092 -2.758663,-2.50337 -0.363957,-0.66433 -0.435602,-1.69971 -0.4394,-6.349997 l -0.0045,-5.55625 h 2.778125 2.778125 l -0.09354,4.12735 c -0.103557,4.56929 0.138286,5.57315 1.464077,6.077207 0.86274,0.32801 1.42044,0.15145 2.22563,-0.704627 0.60759,-0.64598 0.643303,-0.88215 0.769453,-5.08867 l 0.1323,-4.41126 2.97656,-0.0748 2.97656,-0.0748 v 7.28471 7.284707 h -2.61535 -2.61534 l -0.17384,-1.39134 c -0.16433,-1.31528 -0.53255,-2.31484 -0.7517,-2.04058 -0.0548,0.0685 -0.416763,0.67874 -0.804403,1.35599 -1.12065,1.95787 -3.451409,2.78175 -5.844055,2.06576 z m 15.267507,0.008 c -1.25503,-0.50553 -1.87182,-2.59861 -1.15852,-3.93143 0.82466,-1.540877 3.17662,-1.686287 4.36829,-0.27007 0.99731,1.18524 0.92002,2.42685 -0.22217,3.56904 -0.92948,0.92948 -1.79522,1.11275 -2.9876,0.63246 z m 41.7226,-0.13638 c -2.0516,-0.57001 -3.43218,-1.6439 -4.32095,-3.36106 -1.96302,-3.792697 -0.65992,-8.551617 2.8003,-10.226667 1.64142,-0.79459 4.56344,-1.14438 6.85034,-0.82004 4.704,0.66715 7.18427,3.17777 7.18274,7.27065 -0.001,3.192937 -1.26541,5.281947 -3.95944,6.542637 -1.45118,0.67909 -2.07421,0.80598 -4.39435,0.89503 -1.89527,0.0727 -3.13845,-0.0171 -4.15864,-0.30055 z m 4.81164,-4.10363 c 1.98048,-0.550057 2.88384,-2.654287 1.93076,-4.497357 -0.76884,-1.48676 -3.16498,-2.04573 -5.01211,-1.16921 -1.03489,0.49109 -1.46571,1.33597 -1.46571,2.87443 0,2.28513 1.98466,3.503817 4.54706,2.792137 z m 9.35096,3.6414 c -1.17738,-1.17739 -1.26457,-2.4043 -0.25603,-3.60289 1.33347,-1.584727 3.7213,-1.229167 4.51585,0.67243 0.73094,1.74938 -0.3051,3.45864 -2.25491,3.72017 -0.963,0.12917 -1.16599,0.0492 -2.00491,-0.78971 z m 14.89993,0.62172 c -1.21956,-0.3925 -2.21072,-1.09879 -2.84883,-2.03006 -0.33953,-0.49551 -0.7125,-0.90093 -0.82883,-0.90093 -0.11633,0 -0.35805,0.65485 -0.53717,1.45521 l -0.32566,1.45521 h -2.42734 -2.42734 V 94.242113 83.923363 h 2.90676 2.90677 l -0.18259,4.49792 c -0.18817,4.63547 -0.0737,5.19202 0.77332,3.75822 0.63011,-1.06669 1.92267,-1.85988 3.52646,-2.16403 4.49645,-0.85274 7.74029,2.80442 7.38587,8.32697 -0.23917,3.726797 -2.48335,6.235967 -5.71746,6.392587 -0.82547,0.04 -1.81726,-0.0291 -2.20396,-0.1536 z m 0.57946,-4.39067 c 0.9577,-0.495247 1.57884,-1.643727 1.57884,-2.919257 0,-1.39632 -1.39832,-2.7648 -2.82508,-2.7648 -1.84859,0 -2.97502,1.12893 -2.98734,2.99395 -0.0105,1.58578 0.32771,2.23867 1.40148,2.705757 1.10158,0.47918 1.88357,0.47485 2.8321,-0.0156 z m 12.54572,4.28382 c -2.39631,-0.92219 -3.83671,-3.1204 -4.03128,-6.152157 -0.22577,-3.5179 0.99075,-6.34165 3.3202,-7.70681 2.33689,-1.3695 5.70204,-0.7428 7.39335,1.3769 0.40667,0.50967 0.81949,0.92667 0.91738,0.92668 0.0979,0 0.10951,-2.02406 0.0258,-4.49791 l -0.15217,-4.49792 h 2.89686 2.89685 v 10.31875 10.318747 h -2.85652 -2.85652 v -1.49246 -1.49246 l -1.05918,1.20329 c -1.60068,1.81846 -4.3262,2.52991 -6.49478,1.69535 z m 6.82635,-4.928637 c 0.58519,-0.65488 0.72761,-1.0695 0.72761,-2.11825 0,-1.84683 -0.75481,-2.6795 -2.58869,-2.85571 -1.2875,-0.12371 -1.4211,-0.0772 -2.29953,0.80127 -1.05507,1.05507 -1.23439,2.28032 -0.53242,3.6378 0.91184,1.763277 3.34732,2.040867 4.69303,0.53489 z M 60.747957,104.09743 c -1.458598,-0.74376 -2.003183,-1.70752 -2.003183,-3.54505 0,-1.496357 0.05728,-1.640917 0.988266,-2.494107 0.543546,-0.49812 1.525811,-1.04944 2.182812,-1.22517 0.657001,-0.17572 1.194547,-0.40854 1.194547,-0.51738 0,-0.10884 -0.831494,-0.69187 -1.847764,-1.29563 -1.681997,-0.99925 -1.816792,-1.14195 -1.502537,-1.59061 0.554666,-0.7919 2.330642,-2.12661 3.573922,-2.68595 3.411771,-1.53489 8.877835,-0.9485 10.791784,1.15773 1.262746,1.38961 1.516349,2.30931 1.630396,5.91273 0.0936,2.957217 0.181731,3.518827 0.628468,4.004707 0.372354,0.40498 0.495825,0.85487 0.43569,1.5875 l -0.08392,1.02237 -2.421497,0.0757 c -2.20141,0.0688 -2.48508,0.0207 -3.121059,-0.52917 -0.424408,-0.36698 -0.833055,-1.12523 -1.038963,-1.92781 l -0.339402,-1.32292 -0.41957,0.79375 c -0.554076,1.04821 -2.000064,2.41155 -2.929338,2.7619 -1.219521,0.45978 -4.675256,0.34942 -5.718655,-0.18262 z m 6.717695,-3.88584 c 1.442322,-0.434067 2.523914,-1.324437 2.523914,-2.077707 0,-0.40759 -0.123149,-0.47826 -0.595313,-0.34162 -0.327422,0.0948 -1.454561,0.32891 -2.504755,0.52034 -1.946551,0.35482 -2.720766,0.74544 -2.720766,1.37272 0,0.883917 1.377783,1.103847 3.29692,0.526267 z m 1.531726,-4.131307 c 0.6887,-0.19126 0.992188,-0.42494 0.992188,-0.76396 0,-1.36925 -4.074618,-1.00941 -5.39882,0.47678 l -0.504028,0.56568 1.959236,-0.002 c 1.07758,-8.1e-4 2.405721,-0.12547 2.951424,-0.27702 z m 63.036982,1.33683 v -7.14375 h 2.55138 c 2.8218,0 2.71028,-0.0723 3.01411,1.95381 0.10126,0.67523 0.28487,1.28997 0.40802,1.36608 0.12315,0.0761 0.4639,-0.33204 0.75723,-0.90701 0.62482,-1.22476 1.58675,-1.97364 3.05884,-2.38137 1.08262,-0.29986 2.8536,-0.39701 3.08157,-0.16904 0.0699,0.0699 -0.0487,1.38838 -0.26359,2.93001 -0.36795,2.64017 -0.42271,2.79327 -0.94285,2.63627 -0.30372,-0.0917 -1.28974,-0.23532 -2.19117,-0.31921 -1.55727,-0.14494 -1.67811,-0.11338 -2.42473,0.63324 -0.96225,0.96224 -1.18181,2.18366 -1.05524,5.870177 l 0.0918,2.67506 -3.0427,-2.6e-4 -3.04271,-2.6e-4 z m -114.667271,1.03974 c -0.638559,-0.12698 -1.207276,-0.27713 -1.263814,-0.33366 -0.05654,-0.0565 0.315195,-0.72394 0.826074,-1.4831 2.280345,-3.38858 2.283268,-7.55545 0.0075,-10.7563 -0.531569,-0.74766 -0.813993,-1.38085 -0.67701,-1.51783 0.129266,-0.12927 1.003595,-0.29672 1.942954,-0.37213 4.408327,-0.35385 7.932038,2.8357 7.932038,7.17984 0,4.7743 -4.130388,8.2053 -8.767788,7.28318 z M 1.9744249,93.263893 c -0.4252288,-1.28846 -0.1766153,-3.95723 0.4888173,-5.24727 1.2459279,-2.41541 3.8589135,-4.07732 6.4265857,-4.08745 4.7012621,-0.0185 7.7066411,3.4031 7.4315791,8.46086 -0.09144,1.68133 -0.357007,1.78128 -1.940375,0.7303 -1.721015,-1.14235 -3.25246,-1.58434 -5.4485681,-1.57252 -2.069302,0.0111 -3.9770786,0.6305 -5.4831172,1.78008 l -1.1612574,0.88641 z"
       id="path1" /></g></svg>
